<svg xmlns="http://www.w3.org/2000/svg" xmlns:xlink="http://www.w3.org/1999/xlink" width="124.67" height="28.283" viewBox="0 0 124.67 28.283"><defs><linearGradient id="a" x1="0.5" x2="0.5" y2="1" gradientUnits="objectBoundingBox"><stop offset="0" stop-color="#baa981"/><stop offset="1" stop-color="#886314"/></linearGradient></defs><g transform="translate(69 -8)"><path d="M.5,27,6.35,9h3.762l5.85,18H13.25L7.863,10.575h.675L3.213,27Zm3.037-4.062v-2.45h9.4v2.45ZM18.212,27V9h11.5v2.462H20.825v5.05h7.387v2.462H20.825v5.563h8.887V27Zm18.725,0L31.087,9H33.8l4.987,15.362L43.838,9H46.55L40.7,27Zm18.662.375a7.769,7.769,0,0,1-3.731-.869,6.335,6.335,0,0,1-2.531-2.437,7.217,7.217,0,0,1-.912-3.694V9.013L51.075,9V20.237a4.96,4.96,0,0,0,.387,2.025A4.271,4.271,0,0,0,52.5,23.725a4.49,4.49,0,0,0,1.456.887,4.679,4.679,0,0,0,1.644.3,4.628,4.628,0,0,0,1.656-.306,4.581,4.581,0,0,0,1.456-.894,4.2,4.2,0,0,0,1.031-1.462,5,5,0,0,0,.381-2.013V9h2.65V20.375a7.225,7.225,0,0,1-.913,3.688,6.323,6.323,0,0,1-2.531,2.444A7.769,7.769,0,0,1,55.6,27.375ZM66.275,27V9h2.363l6.525,13.538L81.65,9h2.388V26.987H81.563V14.675L75.75,27H74.563L68.738,14.675V27Z" transform="translate(-28.368 3)" fill="url(#a)"/><path d="M6.723,0H30.636l.318.583,3.8,6.958.377.69-.518.591L18.294,27.453l-.728.83-.728-.83L.518,8.822,0,8.231l.377-.69L4.178.583,4.5,0H6.723ZM17.566,23.608,23.733,9.2H11.4Zm-.112-16.65H22.44L17.566,2.707,12.693,6.958ZM13.875,20.671,8.966,9.2H3.829ZM8,6.958H3.245L5.82,2.245h.167Zm2.12-.733L8.42,2.245h6.267ZM21.257,20.671,26.167,9.2H31.3ZM27.128,6.958h4.76L29.312,2.245h-.167Zm-2.12-.733,1.7-3.981H20.445Z" transform="translate(-69 8)" fill-rule="evenodd" fill="url(#a)"/></g></svg>