<svg width="386" height="77" viewBox="0 0 386 77" fill="none" xmlns="http://www.w3.org/2000/svg">
<path fill-rule="evenodd" clip-rule="evenodd" d="M18.3703 0H39.5222H47.6945H48.3055H56.4778H77.6297H81.9062H83.7148L84.5845 1.58634L94.9702 20.5308L96 22.4093L94.5855 24.018L49.9882 74.7402L48 77L46.0118 74.7402L1.41445 24.018L0 22.4093L1.02981 20.5308L11.4155 1.58634L12.2852 0H14.0938H18.3703ZM48 64.2736L64.8517 25.0556H48.3055H47.6945H31.1483L48 64.2736ZM47.6945 18.9444H48.3055H61.3171L48 7.36903L34.6829 18.9444H47.6945ZM37.9145 56.2775L24.4987 25.0556H10.4627L37.9145 56.2775ZM21.8728 18.9444H8.86701L15.9025 6.11111H16.3584L21.8728 18.9444ZM27.6649 16.9487L23.008 6.11111H40.1331L27.6649 16.9487ZM58.0855 56.2775L71.5013 25.0556H85.5373L58.0855 56.2775ZM74.1272 18.9444H87.133L80.0975 6.11111H79.6416L74.1272 18.9444ZM68.3351 16.9487L72.992 6.11111H55.8669L68.3351 16.9487Z" fill="#37246F"/>
<path d="M141.54 57.08C137.647 57.08 134.093 56.44 131 54.52C127.907 52.5467 125.453 49.9067 123.64 46.6C121.88 43.24 121 39.4533 121 35.24C121 31.0267 121.96 27.24 123.88 23.88C125.853 20.52 128.493 17.88 131.8 15.96C135.16 13.9867 138.92 13 143.08 13C147.24 13 150.973 13.9867 154.28 15.96C157.587 17.88 160.2 20.52 162.12 23.88C164.093 27.24 165.08 31.0267 165.08 35.24V53.08C165.08 54.2533 164.68 55.24 163.88 56.04C163.133 56.7867 162.173 57.16 161 57.16C159.827 57.16 158.84 56.7867 158.04 56.04C157.293 55.24 156.92 54.2533 156.92 53.08H158.04C156.173 55.32 164 57.16 161 57.16C158 57.16 144.687 57.08 141.54 57.08ZM143.08 50.2C145.8 50.2 148.227 49.56 150.36 48.28C152.493 46.9467 154.173 45.16 155.4 42.92C156.627 40.6267 157.24 38.0667 157.24 35.24C157.24 32.36 156.627 29.8 155.4 27.56C154.173 25.2667 152.493 23.48 150.36 22.2C148.227 20.8667 145.8 20.2 143.08 20.2C140.413 20.2 137.987 20.8667 135.8 22.2C133.667 23.48 131.96 25.2667 130.68 27.56C129.453 29.8 128.84 32.36 128.84 35.24C128.84 38.0667 129.453 40.6267 130.68 42.92C131.96 45.16 133.667 46.9467 135.8 48.28C137.987 49.56 140.413 50.2 143.08 50.2Z" fill="#37246F"/>
<path d="M197.784 57.4C193.358 57.4 189.411 56.4667 185.944 54.6C182.531 52.68 179.838 50.0667 177.864 46.76C175.944 43.4 174.984 39.56 174.984 35.24C174.984 30.8667 175.891 27.0267 177.704 23.72C179.571 20.36 182.131 17.7467 185.384 15.88C188.638 13.96 192.371 13 196.584 13C200.744 13 204.318 13.9333 207.304 15.8C210.291 17.6133 212.558 20.1467 214.104 23.4C215.704 26.6 216.504 30.3067 216.504 34.52C216.504 35.5333 216.158 36.3867 215.464 37.08C214.771 37.72 213.891 38.04 212.824 38.04H182.424C183.011 41.72 184.691 44.7333 187.464 47.08C190.291 49.3733 193.731 50.52 197.784 50.52C199.438 50.52 201.118 50.2267 202.824 49.64C204.584 49 205.998 48.28 207.064 47.48C207.864 46.8933 208.718 46.6 209.624 46.6C210.584 46.5467 211.411 46.8133 212.104 47.4C213.011 48.2 213.491 49.08 213.544 50.04C213.598 51 213.171 51.8267 212.264 52.52C210.451 53.96 208.184 55.1333 205.464 56.04C202.798 56.9467 200.238 57.4 197.784 57.4ZM196.584 19.88C192.638 19.88 189.464 20.9733 187.064 23.16C184.664 25.3467 183.144 28.1733 182.504 31.64H209.144C208.664 28.2267 207.358 25.4267 205.224 23.24C203.091 21 200.211 19.88 196.584 19.88Z" fill="#37246F"/>
<path d="M240.149 57C238.496 57 237.216 56.12 236.309 54.36L219.349 18.6C218.923 17.6933 218.869 16.8133 219.189 15.96C219.563 15.0533 220.256 14.36 221.269 13.88C222.176 13.4 223.083 13.32 223.989 13.64C224.949 13.96 225.669 14.5733 226.149 15.48L240.069 45.48L253.829 15.48C254.309 14.5733 255.029 13.96 255.989 13.64C257.003 13.32 258.016 13.4 259.029 13.88C259.989 14.3067 260.629 14.9733 260.949 15.88C261.269 16.7867 261.216 17.6933 260.789 18.6L243.829 54.36C243.029 56.12 241.803 57 240.149 57Z" fill="#37246F"/>
<path d="M287.54 57.08C283.86 57.08 280.591 56.7067 277.658 55.16C274.777 53.56 272.484 51.24 270.777 48.2C269.124 45.16 268.298 41.4267 268.298 37V17.32C268.298 16.1467 268.671 15.1867 269.417 14.44C270.217 13.64 271.204 13.24 272.377 13.24C273.551 13.24 274.511 13.64 275.257 14.44C276.057 15.1867 276.457 16.1467 276.457 17.32V37C276.457 41.5333 277.658 44.8667 280.057 47C282.511 49.08 285.551 50.12 289.177 50.12C291.471 50.12 293.497 49.6667 295.257 48.76C297.071 47.8533 298.511 46.6267 299.577 45.08C300.644 43.5333 301.177 41.8 301.177 39.88V17.32C301.177 16.0933 301.551 15.1067 302.298 14.36C303.098 13.6133 304.084 13.24 305.257 13.24C306.484 13.24 307.471 13.6133 308.217 14.36C308.964 15.1067 309.337 16.0933 309.337 17.32V53C309.337 54.1733 308.964 55.16 308.217 55.96C307.471 56.7067 306.484 57.08 305.257 57.08C304.084 57.08 303.098 56.7067 302.298 55.96C301.551 55.16 301.177 54.1733 301.177 53V52.12C299.524 53.7733 310.04 57.08 305.257 57.08C300.475 57.08 290.26 57.08 287.54 57.08Z" fill="#37246F"/>
<path d="M327.789 57.16C326.615 57.16 325.629 56.7867 324.829 56.04C324.082 55.24 323.709 54.2533 323.709 53.08V17.48C323.709 16.2533 324.082 15.2667 324.829 14.52C325.629 13.7733 326.615 13.4 327.789 13.4C329.015 13.4 330.002 13.7733 330.749 14.52C331.495 15.2667 331.869 16.2 331.869 17.32C333.255 15.9333 324.624 13.4 327.789 13.4C330.953 13.4 340.8 13.4 343.04 13.4C348.64 13.4 355.709 19.24 355.709 19.24C355.709 19.24 340.089 13.4 343.04 13.4C345.991 13.4 366.553 13.4 369.54 13.4C374.127 13.4 378.029 14.4133 380.909 17.4C383.789 20.3867 385.229 24.6533 385.229 30.2V53.08C385.229 54.2533 384.855 55.24 384.109 56.04C383.362 56.7867 382.375 57.16 381.149 57.16C379.975 57.16 378.989 56.7867 378.189 56.04C377.442 55.24 377.069 54.2533 377.069 53.08V30.2C377.069 26.84 376.242 24.36 374.589 22.76C372.935 21.1067 370.775 20.28 368.109 20.28C365.335 20.28 363.042 21.24 361.229 23.16C359.469 25.08 358.589 27.5333 358.589 30.52V53.08C358.589 54.2533 358.215 55.24 357.469 56.04C356.722 56.7867 355.735 57.16 354.509 57.16C353.335 57.16 352.349 56.7867 351.549 56.04C350.802 55.24 350.429 54.2533 350.429 53.08V30.2C350.429 26.84 349.602 24.36 347.949 22.76C346.295 21.1067 344.135 20.28 341.469 20.28C338.695 20.28 336.402 21.24 334.589 23.16C332.775 25.08 331.869 27.5333 331.869 30.52V53.08C331.869 54.2533 331.495 55.24 330.749 56.04C330.002 56.7867 329.015 57.16 327.789 57.16Z" fill="#37246F"/>
</svg>
