<svg height="18" viewBox="0 0 18 18" width="18" xmlns="http://www.w3.org/2000/svg"><path d="m12.0317379 10.6175243 3.7367902 3.7367903c.3124195.3124194.3124195.8189514 0 1.1313708l-.2828427.2828427c-.3124194.3124195-.8189514.3124195-1.1313708 0l-3.7367903-3.7367902c-.88604122.6106981-1.96002598.9682621-3.1175243.9682621-3.03756612 0-5.5-2.4624339-5.5-5.5 0-3.03756612 2.46243388-5.5 5.5-5.5 3.0375661 0 5.5 2.46243388 5.5 5.5 0 1.15749832-.357564 2.23148308-.9682621 3.1175243zm-4.5317379-7.1175243c-2.209139 0-4 1.790861-4 4s1.790861 4 4 4 4-1.790861 4-4-1.790861-4-4-4z" fill="#141414" fill-rule="evenodd"/></svg>